<?xml version="1.0" encoding="UTF-8" standalone="no"?>
<svg
   height="24px"
   viewBox="0 0 24 24"
   width="24px"
   fill="#000000"
   version="1.1"
   id="svg6"
   xmlns="http://www.w3.org/2000/svg"
   xmlns:svg="http://www.w3.org/2000/svg">
  <defs
     id="defs10" />
  <path
     d="M0 0h24v24H0V0zm0 0h24v24H0V0z"
     fill="none"
     id="path2" />
  <path
     d="m 9,21 h 9 c 0.83,0 1.54,-0.5 1.84,-1.22 l 3.02,-7.05 C 22.95,12.5 23,12.26 23,12 V 10 C 23,8.9 22.1,8 21,8 H 14.69 L 15.64,3.43 15.67,3.11 C 15.67,2.7 15.5,2.32 15.23,2.05 L 14.17,1 7.58,7.59 C 7.22,7.95 7,8.45 7,9 v 10 c 0,1.1 0.9,2 2,2 z M 1,9 H 5 V 21 H 1 Z"
     id="path4"
     style="fill:#531294;fill-opacity:1" />
</svg>
